<svg width="43" height="42" viewBox="0 0 43 42" fill="none" xmlns="http://www.w3.org/2000/svg">
<mask id="mask0_414_94" style="mask-type:alpha" maskUnits="userSpaceOnUse" x="0" y="0" width="43" height="42">
<rect x="0.5" width="41.7391" height="42" fill="#D9D9D9"/>
</mask>
<g mask="url(#mask0_414_94)">
<path fill-rule="evenodd" clip-rule="evenodd" d="M16.6739 4.2C14.6568 4.2 13.0217 5.84535 13.0217 7.875V11.0622C13.7188 11.1625 14.3524 11.461 14.8644 11.899C16.6588 11.0095 18.8253 10.5 21.3233 10.5H21.3695H21.4158C23.9137 10.5 26.0802 11.0095 27.8747 11.899C28.5119 11.3539 29.3373 11.025 30.2391 11.025C32.2561 11.025 33.8913 12.6704 33.8913 14.7C33.8913 15.6415 33.5395 16.5002 32.9609 17.1505C33.4856 18.3432 33.7933 19.6421 33.8693 21C34.0656 24.605 32.9552 27.5548 30.1942 29.4H34.413C36.43 29.4 38.0652 27.7546 38.0652 25.725V7.875C38.0652 5.84535 36.43 4.2 34.413 4.2H16.6739Z" fill="#4CDBEF"/>
<path fill-rule="evenodd" clip-rule="evenodd" d="M29.7174 29.698C27.7384 30.8539 25.006 31.5 21.4158 31.5H21.3696H21.3233C12.0911 31.5 8.53071 27.2275 8.8698 21C8.94576 19.6421 9.25347 18.3432 9.7782 17.1505C9.19964 16.5002 8.84783 15.6415 8.84783 14.7C8.84783 13.9192 9.08982 13.1953 9.50245 12.6H8.32609C6.30905 12.6 4.67391 14.2453 4.67391 16.275V34.125C4.67391 36.1546 6.30905 37.8 8.32609 37.8H26.0652C28.0823 37.8 29.7174 36.1546 29.7174 34.125V29.698Z" fill="#4C7BEF"/>
<path d="M13.0217 21C13.0217 20.4201 13.4889 19.95 14.0652 19.95H28.6739C29.2502 19.95 29.7174 20.4201 29.7174 21C29.7174 21.5799 29.2502 22.05 28.6739 22.05H14.0652C13.4889 22.05 13.0217 21.5799 13.0217 21Z" fill="url(#paint0_linear_414_94)"/>
<path d="M13.0217 16.8C13.0217 16.2201 13.4889 15.75 14.0652 15.75H21.3696C21.9459 15.75 22.413 16.2201 22.413 16.8C22.413 17.3799 21.9459 17.85 21.3696 17.85H14.0652C13.4889 17.85 13.0217 17.3799 13.0217 16.8Z" fill="url(#paint1_linear_414_94)"/>
<path d="M13.0217 25.2C13.0217 24.6201 13.4889 24.15 14.0652 24.15H28.6739C29.2502 24.15 29.7174 24.6201 29.7174 25.2C29.7174 25.7799 29.2502 26.25 28.6739 26.25H14.0652C13.4889 26.25 13.0217 25.7799 13.0217 25.2Z" fill="url(#paint2_linear_414_94)"/>
</g>
<defs>
<linearGradient id="paint0_linear_414_94" x1="24.8478" y1="22.575" x2="18.4742" y2="29.6129" gradientUnits="userSpaceOnUse">
<stop stop-color="#4CDBEF"/>
<stop offset="1" stop-color="#4E88F8"/>
</linearGradient>
<linearGradient id="paint1_linear_414_94" x1="24.8478" y1="22.575" x2="18.4742" y2="29.6129" gradientUnits="userSpaceOnUse">
<stop stop-color="#4CDBEF"/>
<stop offset="1" stop-color="#4E88F8"/>
</linearGradient>
<linearGradient id="paint2_linear_414_94" x1="24.8478" y1="22.575" x2="18.4742" y2="29.6129" gradientUnits="userSpaceOnUse">
<stop stop-color="#4CDBEF"/>
<stop offset="1" stop-color="#4E88F8"/>
</linearGradient>
</defs>
</svg>
