<svg width="32" height="32" viewBox="0 0 32 32" fill="none" xmlns="http://www.w3.org/2000/svg">
<mask id="mask0_64_707" style="mask-type:alpha" maskUnits="userSpaceOnUse" x="0" y="0" width="32" height="32">
<rect width="32" height="32" fill="#D9D9D9"/>
</mask>
<g mask="url(#mask0_64_707)">
<path fill-rule="evenodd" clip-rule="evenodd" d="M12.0263 2.3999C10.2552 2.3999 8.81931 3.83259 8.81931 5.5999V8.12616C9.43683 8.18691 9.99769 8.44012 10.4408 8.82485C11.9688 8.04765 13.8334 7.59989 15.9967 7.59989H16.0352H16.0737C18.237 7.59989 20.1016 8.04766 21.6296 8.82487C22.141 8.38086 22.8092 8.11201 23.5403 8.11201C25.1487 8.11201 26.4526 9.41301 26.4526 11.0179C26.4526 11.7791 26.1592 12.472 25.6792 12.99C26.1186 13.9612 26.3763 15.0192 26.4397 16.1255C26.6127 19.224 25.5668 21.7265 22.9626 23.1999H26.458C28.2292 23.1999 29.665 21.7672 29.665 19.9999V5.5999C29.665 3.83259 28.2292 2.3999 26.458 2.3999H12.0263Z" fill="#A2A8B6"/>
<path fill-rule="evenodd" clip-rule="evenodd" d="M23.251 23.0286C21.5856 24.0669 19.2271 24.6511 16.0737 24.6511H16.0352H15.9967C8.31192 24.6511 5.34835 21.1819 5.63059 16.1255C5.69404 15.0192 5.95169 13.9611 6.39117 12.99C5.91115 12.4719 5.61783 11.7791 5.61783 11.0179C5.61783 10.1287 6.01807 9.33283 6.64859 8.7998H5.61231C3.84111 8.7998 2.40527 10.2325 2.40527 11.9998V26.3998C2.40527 28.1671 3.84111 29.5998 5.61231 29.5998H20.044C21.8151 29.5998 23.251 28.1671 23.251 26.3998V23.0286ZM10.4116 8.7998C10.4214 8.80809 10.4311 8.81643 10.4408 8.82485C10.4573 8.81646 10.4738 8.80811 10.4904 8.7998H10.4116Z" fill="#A2A8B6"/>
<path d="M9.62109 16C9.62109 15.5582 9.98005 15.2 10.4229 15.2H21.6475C22.0903 15.2 22.4492 15.5582 22.4492 16C22.4492 16.4418 22.0903 16.8 21.6475 16.8H10.4229C9.98005 16.8 9.62109 16.4418 9.62109 16Z" fill="#A2A8B6"/>
<path d="M9.62109 12.8C9.62109 12.3582 9.98005 12 10.4229 12H16.0352C16.478 12 16.8369 12.3582 16.8369 12.8C16.8369 13.2418 16.478 13.6 16.0352 13.6H10.4229C9.98005 13.6 9.62109 13.2418 9.62109 12.8Z" fill="#A2A8B6"/>
<path d="M9.62109 19.2C9.62109 18.7582 9.98005 18.4 10.4229 18.4H21.6475C22.0903 18.4 22.4492 18.7582 22.4492 19.2C22.4492 19.6418 22.0903 20 21.6475 20H10.4229C9.98005 20 9.62109 19.6418 9.62109 19.2Z" fill="#A2A8B6"/>
</g>
</svg>
